<svg viewBox="0 0 256 256" xmlns="http://www.w3.org/2000/svg" fill="none" role="img" aria-label="Chem-OCR logo">
  <title>Chem-OCR — chemistry recognized</title>
  <defs>
    <linearGradient id="rim" x1="0.1" y1="0.1" x2="0.9" y2="0.9">
      <stop offset="0%"   stop-color="#5b95eb"/>
      <stop offset="55%"  stop-color="#2563d6"/>
      <stop offset="100%" stop-color="#1746a8"/>
    </linearGradient>
    <radialGradient id="lens" cx="38%" cy="32%" r="80%">
      <stop offset="0%"   stop-color="#3576d4" stop-opacity="0.10"/>
      <stop offset="55%"  stop-color="#3576d4" stop-opacity="0.05"/>
      <stop offset="100%" stop-color="#3576d4" stop-opacity="0.02"/>
    </radialGradient>
    <clipPath id="lensGlass">
      <circle cx="178" cy="128" r="38"/>
    </clipPath>
  </defs>

  <!-- Phenol (Kekulé) — dark strokes for light bg, double bonds offset 11 px -->
  <g stroke="#1d2330" stroke-width="7" stroke-linecap="round" stroke-linejoin="round">
    <line x1="95" y1="88" x2="95" y2="56"/>
    <polygon points="95,88 131.37,109 131.37,151 95,172 58.63,151 58.63,109"/>
    <g stroke-width="5">
      <line x1="95.56" y1="101.03" x2="119.81" y2="115.03"/>
      <line x1="119.81" y1="144.97" x2="95.56" y2="158.97"/>
      <line x1="69.63" y1="144" x2="69.63" y2="116"/>
    </g>
  </g>

  <text x="95" y="46" font-family="-apple-system, BlinkMacSystemFont, 'Inter', system-ui, sans-serif"
        font-size="28" font-weight="700" letter-spacing="-1"
        fill="#c43d3d" text-anchor="middle">OH</text>

  <g>
    <circle cx="178" cy="128" r="44" fill="url(#lens)"/>
    <!-- Handle as rounded rect — flush with rim outer edge tangent at 45° -->
    <rect x="-2" y="-8" width="32" height="16" rx="8"
          fill="url(#rim)" transform="translate(212.65 162.65) rotate(45)"/>
    <circle cx="178" cy="128" r="44" stroke="url(#rim)" stroke-width="10"/>
    <g clip-path="url(#lensGlass)">
      <path d="M 150.95 120.75 A 28 28 0 0 1 170.75 100.95"
            stroke="#ffffff" stroke-opacity="0.95" stroke-width="5"
            fill="none" stroke-linecap="round"/>
      <circle cx="178" cy="106" r="2.4" fill="#ffffff" fill-opacity="0.95"/>
    </g>
  </g>
</svg>
